{"title":"Power Games: The Packer-Murdoch Story (2013) TV RIP","uid":8900290,"size":1053536967,"categoryP":"video","categoryS":"tv_shows","magnet":"?xt=urn:btih:c780191a8733a558d1be1ae437b2a3461c64ed3c&amp;dn=Power+Games%3A+The+Packer-Murdoch+Story+%282013%29+TV+RIP&amp;tr=udp%3A%2F%2Ftracker.openbittorrent.com%3A80&amp;tr=udp%3A%2F%2Fopen.demonii.com%3A1337&amp;tr=udp%3A%2F%2Ftracker.coppersurfer.tk%3A6969&amp;tr=udp%3A%2F%2Fexodus.desync.com%3A6969","seeders":1,"leechers":0,"uploader":"jmanwf","files":2,"time":1378794507,"description":"Format                                   : MPEG-4\nFormat profile                           : Base Media / Version 2\nCodec ID                                 : mp42\nFile size                                : 980 MiB\nDuration                                 : 1h 32mn\nOverall bit rate mode                    : Variable\nOverall bit rate                         : 1 488 Kbps\nEncoded date                             : UTC 2013-09-09 21:13:37\nTagged date                              : UTC 2013-09-09 22:27:45\nWriting application                      : HandBrake 0.9.9 2013052900\n\nVideo\nID                                       : 1\nFormat                                   : AVC\nFormat/Info                              : Advanced Video Codec\nFormat profile                           : &lt;a class=&quot;__cf_email__&quot; href=&quot;/cdn-cgi/l/email-protection&quot; data-cfemail=&quot;c68ba7afa8868af2e8f6&quot;&gt;[email&amp;#160;protected]&lt;/a&gt;&lt;script cf-hash='f9e31' type=&quot;text/javascript&quot;&gt;\n/* &lt;![CDATA[ */!function(){try{var t=&quot;currentScript&quot;in document?document.currentScript:function(){for(var t=document.getElementsByTagName(&quot;script&quot;),e=t.length;e--;)if(t[e].getAttribute(&quot;cf-hash&quot;))return t[e]}();if(t&amp;&amp;t.previousSibling){var e,r,n,i,c=t.previousSibling,a=c.getAttribute(&quot;data-cfemail&quot;);if(a){for(e=&quot;&quot;,r=parseInt(a.substr(0,2),16),n=2;a.length-n;n+=2)i=parseInt(a.substr(n,2),16)^r,e+=String.fromCharCode(i);e=document.createTextNode(e),c.parentNode.replaceChild(e,c)}}}catch(u){}}();/* ]]&gt; */&lt;/script&gt;\nFormat settings, CABAC                   : Yes\nFormat settings, ReFrames                : 4 frames\nCodec ID                                 : avc1\nCodec ID/Info                            : Advanced Video Coding\nDuration                                 : 1h 32mn\nBit rate mode                            : Variable\nBit rate                                 : 1 321 Kbps\nWidth                                    : 720 pixels\nHeight                                   : 576 pixels\nDisplay aspect ratio                     : 16:9\nFrame rate mode                          : Variable\nFrame rate                               : 50.000 fps\nMinimum frame rate                       : 14.286 fps\nMaximum frame rate                       : 50.000 fps\nStandard                                 : PAL\nColor space                              : YUV\nChroma subsampling                       : 4:2:0\nBit depth                                : 8 bits\nScan type                                : Progressive\nBits/(Pixel*Frame)                       : 0.064\nStream size                              : 870 MiB (89%)\nWriting library                          : x264 core 130 r2273 b3065e6\nEncoding settings                        : cabac=1 // deblock=1:0:0 / \nEncoded date                             : UTC 2013-09-09 21:13:37\nTagged date                              : UTC 2013-09-09 22:27:45\nColor primaries                          : BT.601 PAL\nTransfer characteristics                 : BT.709\nMatrix coefficients                      : BT.601\n\nAudio\nID                                       : 2\nFormat                                   : AAC\nFormat/Info                              : Advanced Audio Codec\nFormat profile                           : LC\nCodec ID                                 : 40\nDuration                                 : 1h 32mn\nBit rate mode                            : Variable\nBit rate                                 : 160 Kbps\nMaximum bit rate                         : 313 Kbps\nChannel(s)                               : 2 channels\nChannel positions                        : Front: L R\nSampling rate                            : 48.0 KHz\nCompression mode                         : Lossy\nDelay relative to video                  : 140ms\nStream size                              : 105 MiB (11%)\nEncoded date                             : UTC 2013-09-09 21:13:37\nTagged date                              : UTC 2013-09-09 22:27:44\n\n &lt;a href=&quot;\nhttp://www.imdb.com/title/tt2827412/&quot; rel=&quot;nofollow&quot; target=&quot;_NEW&quot;&gt;\nhttp://www.imdb.com/title/tt2827412/&lt;/a&gt;\n\n\n\n\nRuntime: 1 Hour 32 Minutes 5 Seconds \n\n\n\nADD FREE\n\n\nAs seen on channel 9 Australia\n\n\n\nOriginal Air date  Sunday 8/9/2013 at 8.30pm\n\n\n\nI went through and erased all the adds in this hope you all enjoy it\n","torrent":{"xt":"urn:btih:c780191a8733a558d1be1ae437b2a3461c64ed3c","amp;dn":"Power+Games%3A+The+Packer-Murdoch+Story+%282013%29+TV+RIP","amp;tr":["udp%3A%2F%2Ftracker.openbittorrent.com%3A80","udp%3A%2F%2Fopen.demonii.com%3A1337","udp%3A%2F%2Ftracker.coppersurfer.tk%3A6969","udp%3A%2F%2Fexodus.desync.com%3A6969"],"infoHash":"c780191a8733a558d1be1ae437b2a3461c64ed3c","infoHashBuffer":{"type":"Buffer","data":[199,128,25,26,135,51,165,88,209,190,26,228,55,178,163,70,28,100,237,60]},"announce":[],"urlList":[]}}